<?xml version="1.0" standalone="no"?>
<!DOCTYPE svg PUBLIC "-//W3C//DTD SVG 1.1//EN" "http://www.w3.org/Graphics/SVG/1.1/DTD/svg11.dtd" >
<svg xmlns="http://www.w3.org/2000/svg" xmlns:xlink="http://www.w3.org/1999/xlink" version="1.1">
<metadata>
Created by FontForge 20170731 at Thu May 17 12:37:14 2018
 By Aleksey,,,
Copyrighted (c) 1981, 1997 by and the property of Linotype-Hell AG and/or its subsidiaries. All Rights Reserved. All Cyrillic characters designed by DoubleAlex. Helvetica is a registered Trademark of Linotype-Hell AG and/or its subsidiaries.
</metadata>
<defs>
<font id="HelveticaNeueCyr-MediumItalic" horiz-adv-x="556" >
  <font-face 
    font-family="HelveticaNeueCyr"
    font-weight="550"
    font-style="italic"
    font-stretch="normal"
    units-per-em="1000"
    panose-1="2 0 6 3 5 0 0 9 0 4"
    ascent="800"
    descent="-200"
    x-height="516"
    cap-height="712"
    bbox="-139 -214 1001 787"
    underline-thickness="50"
    underline-position="-500"
    slope="-12"
    unicode-range="U+000D-25FC"
  />
<missing-glyph horiz-adv-x="364" 
d="M33 0v666h265v-666h-265zM66 33h199v600h-199v-600z" />
    <glyph glyph-name=".notdef" horiz-adv-x="364" 
d="M33 0v666h265v-666h-265zM66 33h199v600h-199v-600z" />
    <glyph glyph-name="glyph1" horiz-adv-x="0" 
 />
    <glyph glyph-name="uni000D" unicode="&#xd;" horiz-adv-x="333" 
 />
    <glyph glyph-name="space" unicode=" " horiz-adv-x="278" 
 />
    <glyph glyph-name="exclam" unicode="!" horiz-adv-x="296" 
d="M10 0l26 124h128l-26 -124h-128zM86 195l34 310l43 207h122l-44 -206l-97 -311h-58z" />
    <glyph glyph-name="quotedbl" unicode="&#x22;" horiz-adv-x="444" 
d="M106 405l44 291h101l-80 -291h-65zM280 405l44 291h101l-80 -291h-65z" />
    <glyph glyph-name="numbersign" unicode="#" 
d="M2 195l17 80h97l33 145h-97l17 80h97l44 196h94l-43 -196h110l43 196h94l-43 -196h96l-17 -80h-96l-33 -145h96l-17 -80h-96l-43 -195h-94l43 195h-110l-43 -195h-94l43 195h-98zM211 275h110l33 145h-110z" />
    <glyph glyph-name="dollar" unicode="$" 
d="M-15 189q0 14 1 28h112q-1 -11 -1 -23q0 -104 100 -119l51 245q-42 12 -69.5 23.5t-56 31.5t-42.5 51t-14 73q0 97 68.5 156.5t179.5 59.5q2 0 7.5 -0.5t9.5 -0.5l16 73h47l-17 -76q79 -9 126.5 -52.5t47.5 -121.5q0 -11 -1 -21h-106v15q0 41 -22.5 66t-62.5 29l-47 -220
q191 -47 191 -189q0 -106 -76.5 -168.5t-186.5 -62.5h-17l-18 -85h-45l18 86q-91 8 -142 61.5t-51 140.5zM176 512q0 -41 23.5 -60t69.5 -33l45 211h-9q-56 0 -92.5 -33.5t-36.5 -84.5zM241 72h7q61 0 101.5 37t40.5 93q0 41 -23.5 65.5t-75.5 39.5z" />
    <glyph glyph-name="percent" unicode="%" horiz-adv-x="944" 
d="M78 465q0 96 50.5 168.5t142.5 72.5q69 0 106.5 -39t37.5 -108q0 -97 -50.5 -171.5t-142.5 -74.5q-68 0 -106 40t-38 112zM160 -31l532 756h83l-532 -756h-83zM164 452q0 -74 62 -74q36 0 61 36t33.5 76t8.5 75q0 76 -58 76q-29 0 -51 -20.5t-33.5 -51.5t-17 -61
t-5.5 -56zM525 137q0 96 50.5 168.5t142.5 72.5q69 0 106.5 -39t37.5 -108q0 -97 -50.5 -171.5t-142.5 -74.5q-68 0 -106 40t-38 112zM611 124q0 -74 62 -74q36 0 61 36t33.5 76t8.5 75q0 76 -58 76q-29 0 -51 -20.5t-33.5 -51.5t-17 -61t-5.5 -56z" />
    <glyph glyph-name="ampersand" unicode="&#x26;" horiz-adv-x="667" 
d="M24 178q0 143 193 225q-50 82 -50 141q0 77 51 125t132 48q77 0 125 -41.5t48 -108.5q0 -36 -13.5 -66t-41 -54.5t-51 -40t-60.5 -35.5l93 -151q40 45 58 119h104q-9 -52 -38.5 -108t-69.5 -95l88 -136h-126l-39 65q-90 -79 -196 -79q-88 0 -147.5 52t-59.5 140zM133 180
q0 -44 30 -72t76 -28q76 0 137 66l-108 181q-29 -15 -47 -26t-41 -30t-35 -41.5t-12 -49.5zM268 550q0 -37 43 -107q6 3 24 14t26.5 16.5t23 17t22 21.5t13.5 24t6 29q0 30 -20.5 49t-53.5 19q-37 0 -60.5 -23.5t-23.5 -59.5z" />
    <glyph glyph-name="quotesingle" unicode="'" horiz-adv-x="278" 
d="M117 405l43 291h101l-81 -291h-63z" />
    <glyph glyph-name="parenleft" unicode="(" horiz-adv-x="296" 
d="M27 158q0 293 245 563h96q-232 -285 -232 -605q0 -170 45 -302h-82q-72 161 -72 344z" />
    <glyph glyph-name="parenright" unicode=")" horiz-adv-x="296" 
d="M-92 -186q232 285 232 605q0 170 -45 302h82q72 -161 72 -344q0 -293 -245 -563h-96z" />
    <glyph glyph-name="asterisk" unicode="*" horiz-adv-x="389" 
d="M84 601l30 58l102 -52l21 113l66 -5l-24 -117l116 17l9 -64l-113 -15l52 -103l-59 -31l-52 106l-82 -92l-47 46l83 88z" />
    <glyph glyph-name="plus" unicode="+" horiz-adv-x="600" 
d="M28 210v95h207v210h102v-210h208v-95h-208v-210h-102v210h-207z" />
    <glyph glyph-name="comma" unicode="," horiz-adv-x="278" 
d="M-29 -157l13 59q40 8 58.5 31.5t25.5 66.5h-63l28 135h135l-23 -112q-18 -87 -55.5 -131.5t-118.5 -48.5z" />
    <glyph glyph-name="hyphen" unicode="-" horiz-adv-x="389" 
d="M20 224l22 103h296l-22 -103h-296z" />
    <glyph glyph-name="period" unicode="." horiz-adv-x="278" 
d="M-2 0l29 135h139l-29 -135h-139z" />
    <glyph glyph-name="slash" unicode="/" horiz-adv-x="352" 
d="M-80 -17l409 746h99l-408 -746h-100z" />
    <glyph glyph-name="zero" unicode="0" 
d="M12 241q0 58 11 119.5t36.5 123.5t61 110.5t89.5 79t118 30.5q108 0 160 -67t52 -180q0 -48 -8 -100t-24 -105t-42.5 -100.5t-60 -85t-81 -59t-102.5 -21.5q-107 0 -158.5 72t-51.5 183zM125 225q0 -145 107 -145q52 0 92.5 44.5t61.5 110.5t31.5 126.5t10.5 106.5
q0 143 -104 143q-53 0 -94.5 -44t-62.5 -109t-31.5 -125.5t-10.5 -107.5z" />
    <glyph glyph-name="one" unicode="1" 
d="M113 496l18 84q163 3 231 124h90l-149 -704h-120l108 508q-69 -13 -149 -13q-15 0 -29 1z" />
    <glyph glyph-name="two" unicode="2" 
d="M-27 0q6 49 22.5 89t36.5 67.5t54.5 55t64.5 46t78 46.5q20 11 30 17q86 50 116 79q48 47 48 105q0 48 -30 76.5t-82 28.5q-66 0 -102.5 -42.5t-43.5 -110.5h-108q11 114 78 181.5t183 67.5q101 0 161 -52.5t60 -140.5q0 -70 -40 -126.5t-126 -108.5q-19 -12 -54 -32.5
t-49.5 -29t-39 -24t-36 -24.5t-27 -22t-25.5 -25t-19 -26q28 2 96 2l263 1l-22 -98h-487z" />
    <glyph glyph-name="three" unicode="3" 
d="M-3 192q0 20 2 37h109q-1 -11 -1 -22q0 -61 33 -93t97 -32t105.5 39t41.5 100q0 103 -125 103q-19 0 -37 -1l17 85h28q158 0 158 113q0 42 -29.5 66.5t-80.5 24.5q-116 0 -139 -130h-108q16 107 83.5 165.5t173.5 58.5q95 0 154 -48t59 -126q0 -62 -34.5 -104t-94.5 -60
q92 -33 92 -143t-79.5 -175t-191.5 -65q-105 0 -169 56.5t-64 150.5z" />
    <glyph glyph-name="four" unicode="4" 
d="M-13 165l23 103l413 438h104l-93 -449h95l-21 -92h-94l-34 -165h-114l35 165h-314zM108 256q7 0 18 0.5t37 0.5h159l67 302q-46 -55 -49 -58l-188 -203q-11 -12 -18 -19t-9.5 -9t-7 -5.5t-9.5 -8.5z" />
    <glyph glyph-name="five" unicode="5" 
d="M2 186v11h111q3 -34 13 -58q24 -60 110 -60q69 0 113.5 48.5t44.5 123.5q0 60 -33.5 94.5t-91.5 34.5q-82 0 -123 -64l-101 3l115 377h386l-20 -100h-293l-52 -167q53 39 127 39q91 0 147 -57.5t56 -150.5q0 -78 -41 -145q-76 -129 -239 -129q-106 0 -167.5 54t-61.5 146
z" />
    <glyph glyph-name="six" unicode="6" 
d="M22 246q0 78 23.5 165.5t60.5 148.5q89 148 249 148q92 0 148.5 -49.5t56.5 -131.5v-5h-112q-6 97 -100 97q-129 0 -193 -228q59 68 154 68q92 0 148 -57.5t56 -151.5q0 -112 -74.5 -188t-184.5 -76q-109 0 -170.5 69t-61.5 191zM135 210q0 -59 33.5 -95t88.5 -36
q62 0 102 46.5t40 118.5q0 59 -32 93.5t-90 34.5q-63 0 -102.5 -45t-39.5 -117z" />
    <glyph glyph-name="seven" unicode="7" 
d="M89 0q41 153 140.5 315t219.5 277q-9 0 -26.5 -0.5t-26.5 -0.5h-304l23 105h476l-20 -95q-124 -124 -216 -279.5t-139 -321.5h-127z" />
    <glyph glyph-name="eight" unicode="8" 
d="M-1 193q0 74 46 124.5t126 63.5q-86 45 -86 136q0 84 63 137t162 53t160 -48t61 -127q0 -60 -36.5 -105t-94.5 -57q49 -17 77 -59t28 -98q0 -102 -76 -163.5t-188 -61.5q-110 0 -176 55.5t-66 149.5zM115 195q0 -55 34.5 -86.5t94.5 -31.5q65 0 105 38t40 101
q0 115 -128 115q-67 0 -106.5 -37t-39.5 -99zM191 508q0 -45 30.5 -71t82.5 -26q54 0 86 30t32 80t-30.5 74t-81.5 24q-55 0 -87 -29.5t-32 -81.5z" />
    <glyph glyph-name="nine" unicode="9" 
d="M3 174h106q9 -98 106 -98q37 0 67 15.5t48 36.5t33.5 56.5t22.5 61t16 64.5q-63 -73 -157 -73q-90 0 -145.5 57t-55.5 149q0 115 74.5 190.5t187.5 75.5q107 0 166 -67t59 -189q0 -61 -10 -123t-33.5 -125t-58.5 -111t-90.5 -78.5t-123.5 -30.5q-98 0 -155 51t-57 138z
M156 449q0 -58 31.5 -90.5t86.5 -32.5q63 0 103.5 45.5t40.5 117.5q0 56 -30.5 90t-85.5 34q-62 0 -104 -47t-42 -117z" />
    <glyph glyph-name="colon" unicode=":" horiz-adv-x="278" 
d="M-1 0l29 135h135l-29 -135h-135zM78 376l29 135h135l-29 -135h-135z" />
    <glyph glyph-name="semicolon" unicode=";" horiz-adv-x="278" 
d="M-32 -157l13 59q40 8 58.5 31.5t25.5 66.5h-63l28 135h135l-23 -112q-18 -87 -55.5 -131.5t-118.5 -48.5zM81 376l29 135h135l-29 -135h-135z" />
    <glyph glyph-name="less" unicode="&#x3c;" horiz-adv-x="600" 
d="M15 208v100l517 199v-106l-388 -143l388 -143v-108z" />
    <glyph glyph-name="equal" unicode="=" horiz-adv-x="600" 
d="M25 102v96h517v-96h-517zM25 317v96h517v-96h-517z" />
    <glyph glyph-name="greater" unicode="&#x3e;" horiz-adv-x="600" 
d="M42 7v108l388 143l-388 143v106l517 -199v-100z" />
    <glyph glyph-name="question" unicode="?" 
d="M72 487q13 111 81 174t177 63q97 0 155.5 -48t58.5 -128q0 -33 -10 -61.5t-21 -47t-37.5 -41t-42 -33t-50.5 -33.5q-20 -13 -35 -26.5t-23.5 -22.5t-15.5 -24.5t-9 -20t-6.5 -21.5t-4.5 -18h-107q18 90 44.5 125.5t114.5 91.5q84 54 84 120q0 42 -27.5 67t-74.5 25
q-114 0 -138 -141h-113zM130 0l27 124h128l-26 -124h-129z" />
    <glyph glyph-name="at" unicode="@" horiz-adv-x="800" 
d="M29 346q0 163 116.5 273t286.5 110q149 0 244 -83.5t95 -215.5q0 -105 -62.5 -184t-145.5 -79q-37 0 -60 20t-23 53q0 8 3 22q-50 -95 -139 -95q-61 0 -98.5 42.5t-37.5 110.5q0 97 60.5 169.5t140.5 72.5q85 0 114 -71l15 55h82l-65 -219q-12 -40 -12 -61
q0 -19 11 -29.5t31 -10.5q50 0 91 64.5t41 144.5q0 109 -79 177t-205 68q-150 0 -250 -96t-100 -240q0 -137 94.5 -224.5t242.5 -87.5q143 0 275 97l28 -38q-78 -57 -150 -82.5t-156 -25.5q-163 0 -275.5 100.5t-112.5 262.5zM303 315q0 -41 17.5 -65t48.5 -24q36 0 66 40.5
t44 88t14 81.5q0 29 -18 48t-46 19q-37 0 -67 -34.5t-44.5 -76.5t-14.5 -77z" />
    <glyph glyph-name="A" unicode="A" horiz-adv-x="685" 
d="M-60 0l426 712h133l124 -712h-127l-29 188h-282l-109 -188h-136zM237 283h217l-22 146q-20 137 -22 166q-42 -83 -105 -193z" />
    <glyph glyph-name="B" unicode="B" horiz-adv-x="704" 
d="M1 0l150 712h270q50 0 87.5 -6t74.5 -22.5t57 -51t20 -86.5q0 -67 -36.5 -112.5t-98.5 -58.5q50 -16 77.5 -53.5t27.5 -92.5q0 -73 -45 -135t-115 -81q-50 -13 -161 -13h-308zM143 98h160q68 0 102.5 7t57.5 26q43 36 43 96q0 33 -18 58.5t-49 32.5q-29 7 -98 7h-149z
M210 413h158q88 0 121 23q46 33 46 94q0 29 -16.5 49.5t-44.5 26.5q-26 5 -80 5h-142z" />
    <glyph glyph-name="C" unicode="C" horiz-adv-x="722" 
d="M36 295q0 116 45 213.5t135 158.5t208 61q124 0 199 -66t75 -175v-13h-121q-3 78 -43 114.5t-120 36.5q-61 0 -111 -30.5t-80.5 -79t-46.5 -105.5t-16 -115q0 -99 47.5 -154.5t132.5 -55.5q76 0 127.5 42.5t71.5 120.5h126q-26 -124 -114.5 -194.5t-216.5 -70.5
q-140 0 -219 82.5t-79 229.5z" />
    <glyph glyph-name="D" unicode="D" horiz-adv-x="722" 
d="M1 0l150 712h178q96 0 136 -4.5t77 -20.5q70 -31 109 -100t39 -163q0 -134 -71.5 -250.5t-193.5 -154.5q-61 -19 -189 -19h-235zM147 104h139q100 0 162 48q52 40 84.5 114t32.5 153q0 65 -26.5 115t-83.5 65q-35 9 -98 9h-103z" />
    <glyph glyph-name="E" unicode="E" horiz-adv-x="630" 
d="M1 0l151 712h517l-22 -104h-393l-40 -191h365l-20 -100h-366l-45 -213h399l-23 -104h-523z" />
    <glyph glyph-name="F" unicode="F" horiz-adv-x="593" 
d="M1 0l152 712h488l-23 -104h-363l-41 -198h318l-21 -100h-318l-66 -310h-126z" />
    <glyph glyph-name="G" unicode="G" horiz-adv-x="759" 
d="M42 290q0 186 106.5 311t290.5 125q122 0 202.5 -61t80.5 -180h-121q-4 68 -47 103t-119 35q-87 0 -150 -51t-91 -125.5t-28 -158.5q0 -98 49.5 -152t139.5 -54q174 0 225 202h-196l21 96h306l-80 -380h-80l-1 74q-79 -92 -217 -92q-136 0 -215 83q-76 82 -76 225z" />
    <glyph glyph-name="H" unicode="H" horiz-adv-x="722" 
d="M-5 0l151 712h124l-60 -287h333l60 287h124l-149 -712h-125l67 319h-332l-68 -319h-125z" />
    <glyph glyph-name="I" unicode="I" horiz-adv-x="278" 
d="M2 0l151 712h125l-150 -712h-126z" />
    <glyph glyph-name="J" unicode="J" horiz-adv-x="537" 
d="M2 158q0 45 11 92h117q-12 -52 -12 -82q0 -84 90 -84q32 0 53.5 9.5t35 36t18 40t12.5 53.5q1 4 1.5 6.5t1.5 5.5l101 477h124l-96 -459q-12 -56 -21 -89t-28 -72t-44 -60t-65.5 -35t-95.5 -14q-92 0 -147.5 43t-55.5 132z" />
    <glyph glyph-name="K" unicode="K" horiz-adv-x="685" 
d="M2 0l150 712h124l-72 -330q23 23 371 330h167l-343 -293l224 -419h-141l-178 341l-130 -108l-48 -233h-124z" />
    <glyph glyph-name="L" unicode="L" horiz-adv-x="574" 
d="M3 0l152 712h125l-129 -606h363l-22 -106h-489z" />
    <glyph glyph-name="M" unicode="M" horiz-adv-x="889" 
d="M-1 0l152 712h172l56 -390q17 -121 17 -192q54 124 88 183l230 399h176l-151 -712h-119l68 311q36 166 75 300q-60 -119 -113 -214l-227 -397h-102l-64 415q-19 122 -21 195q-11 -94 -55 -308l-62 -302h-120z" />
    <glyph glyph-name="N" unicode="N" horiz-adv-x="722" 
d="M-5 0l152 712h130l175 -424q33 -81 51 -140q7 68 39 221l72 343h120l-151 -712h-130l-177 425q-37 91 -49 136q-5 -54 -33 -190l-78 -371h-121z" />
    <glyph glyph-name="O" unicode="O" horiz-adv-x="759" 
d="M33 297q0 182 107.5 305.5t286.5 123.5q139 0 220.5 -82.5t81.5 -222.5q0 -120 -45.5 -219t-136 -160t-209.5 -61q-143 0 -224 84t-81 232zM157 295q0 -98 50 -154.5t138 -56.5q83 0 143.5 53.5t87.5 128t27 154.5q0 94 -46 148t-138 54q-85 0 -146 -50t-88.5 -122.5
t-27.5 -154.5z" />
    <glyph glyph-name="P" unicode="P" horiz-adv-x="667" 
d="M4 0l152 712h261q71 0 111 -9.5t70 -34.5q65 -54 65 -150q0 -87 -51 -155t-134 -80q-51 -8 -124 -8h-167l-58 -275h-125zM209 375h147q100 0 134 25q23 17 37.5 46t14.5 61q0 34 -13 56t-38.5 31.5t-48.5 12t-58 2.5h-126z" />
    <glyph glyph-name="Q" unicode="Q" horiz-adv-x="759" 
d="M34 295q0 188 111 309.5t283 121.5q141 0 222 -83.5t81 -225.5q0 -103 -38.5 -193.5t-108.5 -150.5l84 -87l-69 -62l-94 97q-73 -39 -170 -39q-141 0 -221 85.5t-80 227.5zM159 296q0 -98 49.5 -155t136.5 -57q41 0 86 17l-64 66l69 63l71 -74q99 107 99 261
q0 96 -49 150.5t-135 54.5q-113 0 -188 -93t-75 -233z" />
    <glyph glyph-name="R" unicode="R" horiz-adv-x="704" 
d="M1 0l150 712h284q75 0 119 -10q60 -14 93.5 -59.5t33.5 -111.5q0 -77 -43 -129.5t-117 -65.5q40 -17 56.5 -45t16.5 -79q0 -7 -4 -66t-4 -88q0 -36 11 -58h-126q-8 17 -8 52q0 16 5.5 73.5t5.5 76.5q0 59 -28 75t-95 16h-164l-62 -293h-124zM207 387h197q66 0 101 23
q52 36 52 105q0 31 -11.5 51t-33.5 29t-43.5 12t-52.5 3h-162z" />
    <glyph glyph-name="S" unicode="S" horiz-adv-x="648" 
d="M10 220q0 8 1 15h122v-12q0 -140 163 -140q74 0 118.5 32.5t44.5 86.5q0 26 -10 44.5t-33 30.5t-37.5 17t-46.5 14q-48 13 -74 21t-63.5 25.5t-57 36.5t-34 51t-14.5 72q0 96 73.5 153.5t195.5 57.5q126 0 193.5 -54.5t67.5 -156.5v-12h-120v7q0 120 -141 120
q-68 0 -108.5 -28.5t-40.5 -75.5q0 -24 10 -41t32.5 -29t43 -19t56.5 -16q43 -11 68.5 -19t60.5 -24.5t53.5 -36.5t32.5 -52.5t14 -74.5q0 -113 -85.5 -170.5t-205.5 -57.5q-136 0 -207.5 60t-71.5 175z" />
    <glyph glyph-name="T" unicode="T" horiz-adv-x="593" 
d="M57 609l22 103h586l-22 -103h-228l-128 -609h-125l128 609h-233z" />
    <glyph glyph-name="U" unicode="U" horiz-adv-x="741" 
d="M50 198q0 35 15 107l85 407h125l-85 -405q-14 -70 -14 -94q0 -59 39.5 -91.5t112.5 -32.5q33 0 59.5 6.5t45 15.5t34 28.5t24 33.5t17.5 43.5t13 46.5t12 53l84 396h124l-100 -478q-51 -248 -316 -248q-52 0 -99.5 11.5t-87.5 35.5t-64 66.5t-24 98.5z" />
    <glyph glyph-name="V" unicode="V" horiz-adv-x="611" 
d="M67 712h127l43 -359q14 -122 17 -236q47 108 94 197l212 398h133l-391 -712h-142z" />
    <glyph glyph-name="W" unicode="W" horiz-adv-x="926" 
d="M74 712h124l13 -332q4 -109 4 -177q0 -46 -2 -74q39 104 107 254l150 329h126l20 -302q9 -156 9 -231q0 -29 -1 -46q44 121 112 278l130 301h129l-331 -712h-127l-25 379q-5 83 -5 198q-50 -130 -97 -232l-158 -345h-130z" />
    <glyph glyph-name="X" unicode="X" horiz-adv-x="648" 
d="M-53 0l318 374l-169 338h136l63 -135q11 -24 30 -69.5t23 -55.5q35 48 109 140l97 120h146l-294 -348l179 -364h-136l-55 119q-56 121 -72 161q-11 -11 -34 -42t-29 -39l-162 -199h-150z" />
    <glyph glyph-name="Y" unicode="Y" horiz-adv-x="630" 
d="M51 712h131l86 -221q20 -50 39 -107q30 46 67 94l180 234h148l-348 -436l-59 -276h-123l60 284z" />
    <glyph glyph-name="Z" unicode="Z" horiz-adv-x="630" 
d="M-42 0l22 104l417 419q50 50 94 86q-10 0 -24 -0.5t-20 -0.5h-347l23 104h542l-21 -102l-434 -436q-31 -31 -80 -73q19 0 56.5 1.5t56.5 1.5h322l-22 -104h-585z" />
    <glyph glyph-name="bracketleft" unicode="[" horiz-adv-x="296" 
d="M-32 -181l191 900h223l-18 -86h-118l-153 -726h118l-19 -88h-224z" />
    <glyph glyph-name="backslash" unicode="\" horiz-adv-x="352" 
d="M-80 729h99l409 -746h-100z" />
    <glyph glyph-name="bracketright" unicode="]" horiz-adv-x="296" 
d="M-119 -181l19 87h118l155 727h-118l19 86h223l-192 -900h-224z" />
    <glyph glyph-name="asciicircum" unicode="^" horiz-adv-x="600" 
d="M80 271l175 425h90l175 -425h-103l-119 298l-115 -298h-103z" />
    <glyph glyph-name="underscore" unicode="_" horiz-adv-x="500" 
d="M0 -75h500v-50h-500v50z" />
    <glyph glyph-name="grave" unicode="`" horiz-adv-x="241" 
d="M10 731h126l77 -144h-82z" />
    <glyph glyph-name="a" unicode="a" 
d="M-9 126q0 58 34 97.5t80 55.5t103 20q2 0 29.5 1.5t44.5 3t40 5.5t34 11q27 16 27 61q0 64 -93 64q-103 0 -124 -85h-108q32 168 237 168q92 0 145 -34t53 -93q0 -35 -13 -91l-35 -156q-11 -48 -11 -57q0 -20 23 -20q14 0 44 5l-18 -83q-43 -12 -75 -12q-38 0 -58.5 14
t-23.5 51q-70 -69 -174 -69q-73 0 -117 39t-44 104zM106 137q0 -35 23.5 -54.5t65.5 -19.5q60 0 95.5 31.5t46.5 74.5l23 86q-10 -8 -32.5 -14t-38 -8t-45.5 -5l-29 -2q-109 -10 -109 -89z" />
    <glyph glyph-name="b" unicode="b" horiz-adv-x="611" 
d="M-12 0l153 712h112l-54 -257q64 74 159 74q90 0 142.5 -58t52.5 -158q0 -128 -73.5 -227.5t-196.5 -99.5q-133 0 -170 102l-18 -88h-107zM146 200q0 -58 32 -92t86 -34q73 0 124 68.5t51 165.5q0 61 -29.5 97t-88.5 36q-83 0 -129 -76t-46 -165z" />
    <glyph glyph-name="c" unicode="c" 
d="M23 207q0 134 80 228.5t213 94.5q94 0 150.5 -48.5t56.5 -129.5v-7h-111v4q0 44 -26.5 69t-74.5 25q-58 0 -99 -38t-58 -89.5t-17 -108.5q0 -135 118 -135q45 0 78 27.5t49 78.5h114q-26 -94 -90 -143.5t-160 -49.5q-106 0 -164.5 58.5t-58.5 163.5z" />
    <glyph glyph-name="d" unicode="d" horiz-adv-x="611" 
d="M20 194q0 85 31.5 160t97.5 125.5t153 50.5q119 0 156 -88l56 270h112l-150 -712h-107l15 72q-54 -86 -168 -86q-93 0 -144.5 54.5t-51.5 153.5zM135 200q0 -60 30 -92.5t84 -32.5q44 0 79.5 23.5t56.5 60.5t32 79t11 83q0 55 -30.5 86.5t-84.5 31.5q-77 0 -127.5 -67.5
t-50.5 -171.5z" />
    <glyph glyph-name="e" unicode="e" 
d="M10 210q0 137 82 228.5t204 91.5q101 0 159 -59t58 -162q0 -34 -7 -81h-384q-2 -28 -2 -30q0 -61 33 -95.5t90 -34.5q93 0 128 92h113q-21 -86 -88.5 -131.5t-160.5 -45.5q-106 0 -165.5 60.5t-59.5 166.5zM135 306h270v14q0 61 -29 93t-84 32q-57 0 -98.5 -36.5
t-58.5 -102.5z" />
    <glyph glyph-name="f" unicode="f" horiz-adv-x="315" 
d="M18 0l92 434h-86l19 82h85l17 70q15 62 52.5 97.5t111.5 35.5q35 0 84 -8l-18 -87q-24 5 -43 5q-23 0 -37.5 -5t-23.5 -18.5t-12.5 -23t-9.5 -32.5q-1 -3 -1 -4t-1 -3t-1 -4l-6 -23h101l-18 -82h-99l-92 -434h-114z" />
    <glyph glyph-name="g" unicode="g" horiz-adv-x="593" 
d="M-21 -39h114q6 -84 110 -84q39 0 66.5 11t44 35t25.5 47.5t19 63.5l11 45q-56 -74 -156 -74q-86 0 -140 57t-54 149q0 80 29.5 151t91.5 119t144 48q119 0 161 -100l17 87h108l-103 -485q-8 -38 -17.5 -66t-29.5 -61.5t-47.5 -55t-73.5 -36.5t-105 -15q-97 0 -156 42.5
t-59 113.5v8zM132 216q0 -59 30.5 -92.5t83.5 -33.5q70 0 118 66t48 163q0 55 -30 88.5t-84 33.5q-77 0 -121.5 -71t-44.5 -154z" />
    <glyph glyph-name="h" unicode="h" horiz-adv-x="574" 
d="M-14 0l151 712h112l-59 -270q75 87 180 87q68 0 109 -36.5t41 -96.5q0 -31 -12 -86l-65 -310h-115l63 296q9 45 9 69q0 71 -79 71q-67 0 -109 -48t-57 -119l-57 -269h-112z" />
    <glyph glyph-name="i" unicode="i" horiz-adv-x="241" 
d="M-11 0l109 516h114l-109 -516h-114zM117 603l24 112h113l-24 -112h-113z" />
    <glyph glyph-name="j" unicode="j" horiz-adv-x="241" 
d="M-131 -193l20 92q19 -4 32 -4q27 0 39.5 14.5t23.5 69.5l113 537h113l-104 -500q-1 -3 -2 -8q-23 -110 -44 -145q-37 -61 -132 -61q-30 0 -59 5zM115 602l24 113h113l-23 -113h-114z" />
    <glyph glyph-name="k" unicode="k" horiz-adv-x="519" 
d="M-11 0l152 712h110l-87 -406l237 210h145l-229 -194l129 -322h-125l-92 252l-92 -76l-37 -176h-111z" />
    <glyph glyph-name="l" unicode="l" horiz-adv-x="241" 
d="M-11 0l151 712h113l-150 -712h-114z" />
    <glyph glyph-name="m" unicode="m" horiz-adv-x="889" 
d="M-8 0l110 516h108l-18 -77q33 41 80.5 66t99.5 25q110 0 130 -93q78 91 182 91q63 0 104 -33.5t41 -85.5q0 -35 -15 -106l-64 -303h-114l62 298q11 51 11 76q0 28 -19 44t-52 16q-51 0 -92 -37t-54 -98l-64 -299h-114l63 298q12 56 12 79q0 27 -18 43t-48 16
q-54 0 -97 -39.5t-56 -99.5l-63 -297h-115z" />
    <glyph glyph-name="n" unicode="n" horiz-adv-x="574" 
d="M-14 0l110 516h107l-17 -78q73 91 183 91q69 0 110.5 -35.5t41.5 -94.5q0 -34 -12 -88l-65 -311h-116l66 309q7 31 7 60q0 32 -20.5 49t-57.5 17q-69 0 -109.5 -45.5t-55.5 -116.5l-58 -273h-114z" />
    <glyph glyph-name="o" unicode="o" horiz-adv-x="593" 
d="M16 209q0 139 83.5 230.5t211.5 91.5q106 0 166 -57t60 -163q0 -135 -79.5 -231t-212.5 -96q-109 0 -169 59t-60 166zM129 208q0 -65 32 -101t90 -36q73 0 123 70t50 172q0 59 -31 95.5t-88 36.5q-74 0 -125 -69t-51 -168z" />
    <glyph glyph-name="p" unicode="p" horiz-adv-x="611" 
d="M-53 -191l150 707h107l-15 -68q66 81 168 81q90 0 142 -59t52 -160q0 -83 -29.5 -155t-92.5 -120.5t-148 -48.5q-125 0 -164 94l-57 -271h-113zM146 198q0 -57 32.5 -90.5t88.5 -33.5q72 0 121 67t49 165q0 133 -119 133q-57 0 -98 -40t-57.5 -93t-16.5 -108z" />
    <glyph glyph-name="q" unicode="q" horiz-adv-x="611" 
d="M19 194q0 85 31.5 160t97.5 125.5t153 50.5q120 0 159 -94l17 80h106l-149 -707h-112l54 255q-66 -78 -167 -78q-89 0 -139.5 55t-50.5 153zM133 200q0 -61 29 -93.5t84 -32.5q58 0 101 40.5t61 95t18 110.5q0 54 -31 86t-84 32q-86 0 -132 -73.5t-46 -164.5z" />
    <glyph glyph-name="r" unicode="r" horiz-adv-x="370" 
d="M-10 0l110 516h107l-23 -103q70 116 180 116q22 0 40 -3l-24 -111q-22 5 -46 5q-139 0 -181 -191l-50 -229h-113z" />
    <glyph glyph-name="s" unicode="s" horiz-adv-x="500" 
d="M-10 155v10h108v-3q0 -94 117 -94q47 0 75.5 19.5t28.5 52.5q0 31 -23 46t-97 41q-3 1 -5 2q-29 11 -43 16.5t-37.5 18.5t-35 26t-20.5 34.5t-9 48.5q0 72 58 114.5t155 42.5q94 0 146.5 -40.5t52.5 -113.5v-11h-108q0 47 -25 65.5t-75 18.5q-44 0 -68.5 -16.5
t-24.5 -45.5q0 -28 27.5 -44t90.5 -37q15 -4 23 -7q131 -45 131 -141q0 -87 -67 -130t-159 -43q-103 0 -159.5 44.5t-56.5 125.5z" />
    <glyph glyph-name="t" unicode="t" horiz-adv-x="333" 
d="M19 433l18 83h88l34 154h113l-33 -154h102l-19 -83h-101l-55 -254q-10 -43 -10 -59q0 -34 50 -34q23 0 54 4l-19 -89q-36 -6 -76 -6q-127 0 -127 94q0 25 14 86l55 258h-88z" />
    <glyph glyph-name="u" unicode="u" horiz-adv-x="574" 
d="M17 119q0 32 11 85l66 312h115l-58 -273q-16 -73 -16 -100q0 -31 22 -48.5t60 -17.5q64 0 103 48.5t54 117.5l58 273h113l-109 -516h-108l18 77q-65 -92 -176 -92q-70 0 -111.5 36.5t-41.5 97.5z" />
    <glyph glyph-name="v" unicode="v" horiz-adv-x="500" 
d="M34 516h117l28 -242q8 -78 10 -169q38 90 67 146l139 265h121l-284 -516h-127z" />
    <glyph glyph-name="w" unicode="w" horiz-adv-x="778" 
d="M31 516h116l15 -176q12 -150 12 -225q20 59 45 114l129 287h120l16 -245q5 -73 5 -152q21 59 89 203l93 194h121l-267 -516h-120l-19 285q-3 52 -3 104q-5 -11 -18.5 -45.5t-22.5 -53.5l-132 -290h-120z" />
    <glyph glyph-name="x" unicode="x" horiz-adv-x="500" 
d="M-69 0l240 274l-116 242h124l49 -120q14 -32 19 -51q36 49 37 50l98 121h131l-218 -249l132 -267h-124l-56 127q-12 26 -28 66q-20 -28 -39 -51l-117 -142h-132z" />
    <glyph glyph-name="y" unicode="y" horiz-adv-x="500" 
d="M-63 -190l20 93q30 -8 56 -8q19 0 34 9t26 25.5t16 27t11 26.5l19 49l-87 484h118l29 -199q18 -119 25 -201q34 83 77 167l120 233h122l-321 -579q-40 -73 -85.5 -104t-109.5 -31q-36 0 -70 8z" />
    <glyph glyph-name="z" unicode="z" horiz-adv-x="481" 
d="M-48 0l18 84l272 274q32 32 77 70q-13 0 -56.5 -0.5t-67.5 -0.5h-146l19 89h412l-17 -83l-273 -276q-21 -21 -80 -72q42 4 135 4h171l-19 -89h-445z" />
    <glyph glyph-name="braceleft" unicode="{" horiz-adv-x="296" 
d="M-48 240l13 60q45 7 74 20t46.5 38t26 48t18.5 67q23 95 30 115q52 135 239 135l-12 -62q-34 -3 -59 -15t-39.5 -25.5t-26.5 -40t-17.5 -45t-13.5 -55.5q-22 -99 -38 -129q-35 -68 -130 -79q-7 -1 -16 -2q54 -13 80 -42t26 -84q0 -34 -14.5 -101t-14.5 -91q0 -40 26 -55
t70 -18l-13 -60h-8q-74 0 -121.5 37t-47.5 107q0 36 13.5 106.5t13.5 88.5q0 66 -105 82z" />
    <glyph glyph-name="bar" unicode="|" horiz-adv-x="222" 
d="M61 -214v1000h100v-1000h-100z" />
    <glyph glyph-name="braceright" unicode="}" horiz-adv-x="296" 
d="M-139 -181l13 62q33 3 58 15t39.5 25.5t26.5 40t17.5 45t13.5 55.5q22 99 39 130q36 69 134 79q6 1 12 1q-54 13 -80 42t-26 84q0 34 14 101t14 91q0 40 -26 55t-70 18l13 60h9q74 0 121.5 -37t47.5 -107q0 -37 -14 -107t-14 -88q0 -66 105 -82l-13 -60q-45 -7 -73.5 -20
t-46 -38t-25.5 -47.5t-19 -67.5q-21 -88 -31 -115q-51 -135 -239 -135z" />
    <glyph glyph-name="asciitilde" unicode="~" horiz-adv-x="600" 
d="M16 175q7 70 42 117t100 47q30 0 135 -34q10 -3 27.5 -9t25 -8.5l19.5 -6.5t19.5 -5.5t17 -2.5t18.5 -1q53 0 65 68h65q-8 -79 -45 -121t-98 -42q-33 0 -134 32q-7 3 -29 10.5t-36 12.5t-31.5 9.5t-28.5 4.5q-26 0 -44.5 -19.5t-22.5 -51.5h-65z" />
    <glyph glyph-name="uni00A0" unicode="&#xa0;" horiz-adv-x="278" 
 />
    <glyph glyph-name="sterling" unicode="&#xa3;" 
d="M-5 73q67 49 95.5 91t28.5 92q0 28 -8 63h-89l14 63h63q-22 60 -22 113q0 100 73.5 162.5t176.5 62.5q102 0 164 -58t62 -154q0 -13 -1 -24h-111q1 8 1 17q0 59 -30.5 90.5t-86.5 31.5q-58 0 -94 -37.5t-36 -99.5q0 -51 19 -104h149l-13 -63h-126q5 -25 5 -45
q0 -60 -26.5 -98t-83.5 -85q56 24 96 24q29 0 67 -11q61 -18 88 -18q7 0 14 1t12.5 2t13 4t11 4.5t11.5 6t11 6t12 7t12 7.5l36 -89q-75 -50 -145 -50q-37 0 -115 24q-60 19 -97 19q-13 0 -26.5 -3t-21 -5t-24.5 -10.5t-19.5 -9.5t-23.5 -13z" />
    <glyph glyph-name="currency" unicode="&#xa4;" 
d="M34 160l66 66q-37 60 -37 120q0 66 37 120l-66 66l58 58l66 -66q49 37 120 37q62 0 121 -37l65 66l58 -58l-66 -66q37 -49 37 -121q0 -61 -37 -119l66 -66l-58 -58l-66 66q-50 -37 -119 -37q-67 0 -121 37l-66 -66zM150 346q0 -53 37.5 -90.5t90.5 -37.5t90.5 37.5
t37.5 90.5t-37.5 90.5t-90.5 37.5t-90.5 -37.5t-37.5 -90.5z" />
    <glyph glyph-name="brokenbar" unicode="&#xa6;" horiz-adv-x="222" 
d="M61 -89v250h100v-250h-100zM61 411v250h100v-250h-100z" />
    <glyph glyph-name="section" unicode="&#xa7;" 
d="M1 1h105v-3q0 -100 99 -100q39 0 63 20.5t24 53.5q0 30 -29 62t-106 101q-70 62 -98.5 102.5t-28.5 89.5q0 60 38.5 102t102.5 52q-25 40 -25 80q0 76 59.5 118.5t137.5 42.5q87 0 138 -43.5t51 -118.5q0 -3 -0.5 -9t-0.5 -11h-104v9q0 40 -22.5 63t-62.5 23
q-38 0 -61.5 -20.5t-23.5 -52.5t22.5 -59t85.5 -78q91 -74 119.5 -114.5t28.5 -89.5q0 -61 -39 -104.5t-103 -53.5q30 -37 30 -87q0 -72 -57 -119.5t-144 -47.5q-90 0 -144.5 49t-54.5 129v14zM133 338q0 -39 47 -84l134 -129l10 -1q30 0 57 21.5t27 57.5q0 13 -5 26t-9 21
t-16.5 22t-15.5 17t-19 18l-113 107q-3 3 -14 3q-33 0 -58 -24t-25 -55z" />
    <glyph glyph-name="copyright" unicode="&#xa9;" horiz-adv-x="800" 
d="M27 356q0 154 109.5 263.5t263.5 109.5t263.5 -109.5t109.5 -263.5t-109.5 -263.5t-263.5 -109.5t-263.5 109.5t-109.5 263.5zM76 356q0 -134 95 -229t229 -95t229 95t95 229t-95 229t-229 95t-229 -95t-95 -229zM204 357q0 96 55.5 158t141.5 62q74 0 126 -44t56 -111
h-76q-8 42 -35.5 66t-68.5 24q-53 0 -85 -42t-32 -110q0 -72 33 -114.5t89 -42.5q82 0 101 85h76q-7 -65 -56.5 -107.5t-118.5 -42.5q-89 0 -147.5 62.5t-58.5 156.5z" />
    <glyph glyph-name="guillemotleft" unicode="&#xab;" horiz-adv-x="463" 
d="M26 220l25 110l175 108l-22 -105l-114 -69l81 -88l-19 -94zM221 220l25 110l176 108l-23 -105l-113 -68l80 -89l-20 -93z" />
    <glyph glyph-name="logicalnot" unicode="&#xac;" horiz-adv-x="600" 
d="M29 317v96h517v-311h-98v215h-419z" />
    <glyph glyph-name="uni00AD" unicode="&#xad;" horiz-adv-x="389" 
d="M20 224l22 103h296l-22 -103h-296z" />
    <glyph glyph-name="registered" unicode="&#xae;" horiz-adv-x="400" 
d="M48 543q0 77 54.5 131.5t131.5 54.5t132 -54.5t55 -131.5q1 -77 -54.5 -132t-132.5 -55t-131.5 55t-54.5 132zM80 543q0 -64 45 -109.5t109 -45.5t109 45.5t45 109.5t-45 109t-109 45t-109 -45t-45 -109zM157 441v205h73q91 0 91 -60q0 -36 -37 -49q19 -7 26 -21.5
t8 -46.5q0 -15 5 -28h-46q-4 12 -4 28q-1 31 -10 40t-38 9h-22v-77h-46zM203 554h25q46 0 46 28q0 27 -46 27h-25v-55z" />
    <glyph glyph-name="degree" unicode="&#xb0;" horiz-adv-x="400" 
d="M78 545q0 67 47 114t114 47t114 -47t47 -114t-47 -114t-114 -47t-114 47t-47 114zM160 545q0 -32 23 -55.5t56 -23.5t56 23.5t23 55.5q0 33 -23 56t-56 23t-56 -23t-23 -56z" />
    <glyph glyph-name="plusminus" unicode="&#xb1;" horiz-adv-x="600" 
d="M15 -16v95h517v-95h-517zM15 273v96h207v162h102v-162h208v-96h-208v-158h-102v158h-207z" />
    <glyph glyph-name="mu" unicode="&#xb5;" horiz-adv-x="574" 
d="M-63 -191l151 707h116l-61 -286q-13 -58 -13 -83q0 -33 22 -51.5t61 -18.5q66 0 104 49.5t53 122.5l57 267h113l-110 -516h-108l16 70q-59 -85 -149 -85q-61 0 -93 45l-44 -221h-115z" />
    <glyph glyph-name="paragraph" unicode="&#xb6;" horiz-adv-x="600" 
d="M34 420q0 131 90.5 211.5t225.5 80.5h292l-16 -77h-54l-174 -817h-93l174 817h-111l-174 -817h-93l91 431q-158 21 -158 171z" />
    <glyph glyph-name="periodcentered" unicode="&#xb7;" horiz-adv-x="278" 
d="M41 225l29 135h139l-29 -135h-139z" />
    <glyph glyph-name="guillemotright" unicode="&#xbb;" horiz-adv-x="463" 
d="M4 83l22 105l113 68l-80 89l20 93l125 -137l-24 -110zM199 83l22 105l113 69l-80 88l20 94l126 -138l-26 -110z" />
    <glyph glyph-name="divide" unicode="&#xf7;" horiz-adv-x="600" 
d="M26 210v95h517v-95h-517zM225 9v130h118v-130h-118zM225 376v130h118v-130h-118z" />
    <glyph glyph-name="uni2000" unicode="&#x2000;" horiz-adv-x="393" 
 />
    <glyph glyph-name="uni2001" unicode="&#x2001;" horiz-adv-x="787" 
 />
    <glyph glyph-name="uni2002" unicode="&#x2002;" horiz-adv-x="393" 
 />
    <glyph glyph-name="uni2003" unicode="&#x2003;" horiz-adv-x="787" 
 />
    <glyph glyph-name="uni2004" unicode="&#x2004;" horiz-adv-x="262" 
 />
    <glyph glyph-name="uni2005" unicode="&#x2005;" horiz-adv-x="196" 
 />
    <glyph glyph-name="uni2006" unicode="&#x2006;" horiz-adv-x="131" 
 />
    <glyph glyph-name="uni2007" unicode="&#x2007;" horiz-adv-x="131" 
 />
    <glyph glyph-name="uni2008" unicode="&#x2008;" horiz-adv-x="98" 
 />
    <glyph glyph-name="uni2009" unicode="&#x2009;" horiz-adv-x="157" 
 />
    <glyph glyph-name="uni200A" unicode="&#x200a;" horiz-adv-x="43" 
 />
    <glyph glyph-name="uni2010" unicode="&#x2010;" horiz-adv-x="389" 
d="M20 224l22 103h296l-22 -103h-296z" />
    <glyph glyph-name="uni2011" unicode="&#x2011;" horiz-adv-x="389" 
d="M20 224l22 103h296l-22 -103h-296z" />
    <glyph glyph-name="figuredash" unicode="&#x2012;" horiz-adv-x="389" 
d="M20 224l22 103h296l-22 -103h-296z" />
    <glyph glyph-name="endash" unicode="&#x2013;" horiz-adv-x="500" 
d="M-21 225l21 100h500l-21 -100h-500z" />
    <glyph glyph-name="emdash" unicode="&#x2014;" horiz-adv-x="1000" 
d="M-20 225l21 100h1000l-21 -100h-1000z" />
    <glyph glyph-name="quoteleft" unicode="&#x2018;" horiz-adv-x="278" 
d="M89 439l23 113q17 81 57 127.5t116 46.5l-13 -60q-42 -4 -58.5 -27t-25.5 -68h64l-28 -132h-135z" />
    <glyph glyph-name="quoteright" unicode="&#x2019;" horiz-adv-x="278" 
d="M87 425l13 60q42 4 58.5 27t25.5 68h-64l28 132h135l-23 -113q-17 -81 -57 -127.5t-116 -46.5z" />
    <glyph glyph-name="quotesinglbase" unicode="&#x201a;" horiz-adv-x="278" 
d="M-31 -155l13 60q42 4 58.5 27t25.5 68h-64l28 132h135l-23 -113q-17 -81 -57 -127.5t-116 -46.5z" />
    <glyph glyph-name="quotedblleft" unicode="&#x201c;" horiz-adv-x="444" 
d="M75 442l23 111q16 79 52.5 123.5t109.5 47.5l-12 -57q-38 -6 -55 -29t-26 -68h60l-27 -128h-125zM272 442l23 111q16 79 52.5 123.5t109.5 47.5l-12 -57q-38 -6 -55 -29t-26 -68h60l-27 -128h-125z" />
    <glyph glyph-name="quotedblright" unicode="&#x201d;" horiz-adv-x="444" 
d="M75 430l12 57q38 6 55 29t26 68h-60l27 128h125l-23 -111q-16 -79 -52.5 -123.5t-109.5 -47.5zM272 430l12 57q38 6 55 29t26 68h-60l27 128h125l-23 -111q-16 -79 -52.5 -123.5t-109.5 -47.5z" />
    <glyph glyph-name="quotedblbase" unicode="&#x201e;" horiz-adv-x="444" 
d="M-43 -154l12 57q38 6 55 29t26 68h-60l27 128h125l-23 -111q-16 -79 -52.5 -123.5t-109.5 -47.5zM154 -154l12 57q38 6 55 29t26 68h-60l27 128h125l-23 -111q-16 -79 -52.5 -123.5t-109.5 -47.5z" />
    <glyph glyph-name="bullet" unicode="&#x2022;" horiz-adv-x="500" 
d="M72 356q0 74 52 126t126 52t126 -52t52 -126t-52 -126t-126 -52t-126 52t-52 126z" />
    <glyph glyph-name="ellipsis" unicode="&#x2026;" horiz-adv-x="1000" 
d="M34 0l28 130h117l-28 -130h-117zM367 0l28 130h117l-28 -130h-117zM700 0l28 130h117l-28 -130h-117z" />
    <glyph glyph-name="uni202F" unicode="&#x202f;" horiz-adv-x="157" 
 />
    <glyph glyph-name="guilsinglleft" unicode="&#x2039;" horiz-adv-x="259" 
d="M19 220l25 110l175 108l-21 -105l-115 -68l81 -89l-20 -93z" />
    <glyph glyph-name="guilsinglright" unicode="&#x203a;" horiz-adv-x="259" 
d="M4 83l22 106l114 68l-81 88l21 94l125 -139l-25 -108z" />
    <glyph glyph-name="uni205F" unicode="&#x205f;" horiz-adv-x="196" 
 />
    <glyph glyph-name="trademark" unicode="&#x2122;" horiz-adv-x="990" 
d="M130 657v55h299v-55h-114v-301h-70v301h-115zM487 356v356h105l90 -251l89 251h103v-356h-63v293l-103 -293h-54l-103 293v-293h-64z" />
    <glyph glyph-name="uni25FC" unicode="&#x25fc;" horiz-adv-x="515" 
d="M0 0v515h515v-515h-515z" />
    </font>
</defs>
</svg>
