<?xml version="1.0" encoding="utf-8"?>
<!-- Generator: Adobe Illustrator 22.0.1, SVG Export Plug-In . SVG Version: 6.00 Build 0)  -->
<svg version="1.1" id="Слой_1" xmlns:svgjs="http://svgjs.com/svgjs"
	 xmlns="http://www.w3.org/2000/svg" xmlns:xlink="http://www.w3.org/1999/xlink" x="0px" y="0px" viewBox="0 0 284.7 84.6"
	 style="enable-background:new 0 0 284.7 84.6;" xml:space="preserve">
<style type="text/css">
	.st0{fill:#1F83C3;}
</style>
<g id="SvgjsG1063" transform="translate(77.44000005722046,-174.33318578066834)" xmlns:name="main_text">
	<path class="st0" d="M16.7,218.4c0,0-1.3-5.2-8.5-41.8c-0.2-0.6-0.8-1.2-1.9-1.2c-1.2,0-1.7,0.9-1.7,1.9v62.1
		c0,0.9,0.6,1.6,1.5,1.6s1.4-0.7,1.4-1.6v-37.8c0-7.1-0.5-16.6-0.6-19.4h0.2c0,0,0.4,3.8,1.4,8.5l6,28.1c0.3,1.2,1.3,2.3,2.4,2.3
		c1.5,0,2.3-1.4,2.5-2.6l6-27.8c1-4.6,1.4-8.5,1.4-8.5h0.1c0,0-0.5,10.9-0.5,19.4v37.8c0,0.9,0.5,1.6,1.4,1.6c0.9,0,1.5-0.7,1.5-1.6
		v-62.1c0-1-0.5-1.9-1.7-1.9c-1.2,0-1.7,0.6-1.9,1.2c-7.2,36.6-8.5,41.8-8.5,41.8H16.7z M46.3,193.6c-4.2,0-9.3,1.6-9.3,10.4
		c0,5.1,0.2,10.7,0.2,13.9c0,3.3-0.2,7.6-0.2,12.7c0,8.8,5.3,10.7,9.3,10.7s9.3-1.9,9.3-10.7c0-5.1-0.2-9.4-0.2-12.7
		c0-3.3,0.2-8.8,0.2-13.9C55.6,195.1,50.5,193.6,46.3,193.6z M46.3,196.5c2.7,0,6.4,1,6.4,7.5c0,5.2-0.1,10.7-0.1,13.9
		c0,3.3,0.1,7.5,0.1,12.7c0,6.4-3.6,7.8-6.4,7.8c-2.7,0-6.4-1.4-6.4-7.8c0-5.2,0.1-9.4,0.1-12.7c0-3.3-0.1-8.8-0.1-13.9
		C39.9,197.5,43.6,196.5,46.3,196.5z M81.9,205.4c0-9.3-4.7-11.9-8.7-11.9c-3.2,0-5.7,1.3-7.1,4.2c0.1-0.3,0.1-0.4,0.1-0.6v-0.6
		c-0.2-1-0.7-1.6-1.5-1.6c-0.7,0-1.4,0.6-1.4,1.6v59.9c0,1,0.7,1.5,1.5,1.5c0.7,0,1.5-0.4,1.5-1.5V238c1.6,2.4,4.1,3.6,7,3.6
		c3.9,0,8.7-2.6,8.7-10.9V205.4z M66.2,205.3c0-7.1,3.7-8.8,6.4-8.8c3.4,0,6.4,2.2,6.4,9v25.2c0,5.9-3,8.1-6.4,8.1
		c-3.7,0-6.4-2.1-6.4-8.1V205.3z M98.5,240.8c0.9,0,1.5-0.7,1.5-1.6v-60h9.3c1,0,1.5-0.7,1.5-1.5s-0.5-1.6-1.5-1.6H87.7
		c-1,0-1.5,0.8-1.5,1.6s0.5,1.5,1.5,1.5h9.2v60C96.9,240.1,97.6,240.8,98.5,240.8z M134.1,205.4c0-9.3-4.7-11.9-8.7-11.9
		c-3.2,0-5.7,1.3-7.1,4.2c0.1-0.3,0.1-0.4,0.1-0.6v-0.6c-0.2-1-0.7-1.6-1.5-1.6c-0.7,0-1.4,0.6-1.4,1.6v59.9c0,1,0.7,1.5,1.5,1.5
		c0.7,0,1.5-0.4,1.5-1.5V238c1.6,2.4,4.1,3.6,7,3.6c3.9,0,8.7-2.6,8.7-10.9V205.4z M118.4,205.3c0-7.1,3.7-8.8,6.4-8.8
		c3.4,0,6.4,2.2,6.4,9v25.2c0,5.9-3,8.1-6.4,8.1c-3.7,0-6.4-2.1-6.4-8.1V205.3z M143.2,202.9c0-4.8,2.6-6.5,5.8-6.5
		c3.2,0,5.7,1.6,5.7,6.5v10.3h-6c-4.7,0-8.7,2.4-8.7,9.9v7.5c0,7.8,3.8,10.6,8,10.6c3.7,0,5.9-1.9,7-5c-0.1,0.6-0.2,1.1-0.2,1.7v1.1
		c0,1,0.6,1.6,1.4,1.6c0.7,0,1.4-0.6,1.4-1.6v-36.1c0-6.8-3.9-9.3-8.7-9.3c-4.4,0-8.6,2.6-8.6,9.3v3.6c0,1,0.5,1.6,1.4,1.6
		c0.7,0,1.4-0.5,1.4-1.6V202.9z M148.4,238.5c-2.7,0-5.5-2.2-5.5-7.9v-7.5c0-5.2,2.6-7,5.7-7h6v12.6
		C154.7,234,153.6,238.5,148.4,238.5z M167.9,195.3c0-1-0.7-1.5-1.5-1.5c-0.7,0-1.5,0.5-1.5,1.5v43.8c0,1,0.7,1.5,1.5,1.5
		c0.7,0,1.5-0.5,1.5-1.5V216h11.9v23.1c0,1,0.7,1.5,1.5,1.5c0.7,0,1.4-0.5,1.4-1.5v-43.8c0-1-0.7-1.5-1.4-1.5
		c-0.7,0-1.5,0.5-1.5,1.5v17.9h-11.9V195.3z M192.9,202.4c0-4.3,3.2-5.9,5.7-5.9c2.8,0,5.8,1.6,5.8,5.9v6.9c0,1,0.7,1.5,1.5,1.5
		c0.7,0,1.4-0.5,1.4-1.5V203c0-7.3-4.4-9.4-8.7-9.4c-3.9,0-8.7,2.2-8.7,8.8v1.3c0,5.1,0.3,10.8,0.3,14.1s-0.3,7.6-0.3,12.7
		c0,8.5,4.6,10.7,8.7,10.7c4.3,0,8.6-2.7,8.6-9.4v-6.4c0-1-0.7-1.5-1.5-1.5c-0.7,0-1.5,0.5-1.5,1.5v6.9c0,4.1-3.3,5.9-5.7,5.9
		c-2.7,0-5.7-1.6-5.7-7.8c0-5.2,0.2-9.4,0.2-12.7s-0.2-8.9-0.2-14.1V202.4z"/>
</g>
<g id="SvgjsG1064" transform="translate(-12.341633347802265,-3.5198228713655095) scale(1.763139841153617)" xmlns:name="symbol_mainfill">
	<g>
		<g>
			<path class="st0" d="M26,45.6c-1.4,0-2.9-0.4-4.1-1.1c-1.7-1-3.8-1.1-5.6-0.3c-0.2,0.1-0.4,0.2-0.6,0.3c-2.5,1.5-5.7,1.5-8.2,0
				c-0.5-0.3-0.6-0.9-0.3-1.4c0.3-0.5,0.9-0.6,1.4-0.3c1.8,1.1,4.3,1.1,6.2,0c0.3-0.2,0.5-0.3,0.8-0.4c2.4-1.1,5.2-0.9,7.4,0.4
				c1.8,1.1,4.3,1.1,6.2,0c2.2-1.3,5.1-1.5,7.4-0.4c0.3,0.1,0.5,0.3,0.8,0.4c1.8,1.1,4.3,1.1,6.2,0c0.5-0.3,1.1-0.1,1.4,0.3
				c0.3,0.5,0.1,1.1-0.3,1.4c-2.5,1.5-5.7,1.5-8.2,0c-0.2-0.1-0.4-0.2-0.6-0.3c-1.8-0.8-3.9-0.7-5.6,0.3
				C28.9,45.2,27.4,45.6,26,45.6z"/>
		</g>
		<g>
			<path class="st0" d="M26,50c-1.3,0-2.6-0.4-3.8-1.2c-1.4-1-3.3-1.1-4.8-0.3c-0.2,0.1-0.4,0.2-0.5,0.3c-0.5,0.3-1.1,0.2-1.4-0.3
				c-0.3-0.5-0.2-1.1,0.3-1.4c0.2-0.2,0.5-0.3,0.7-0.4c2.2-1.1,4.8-0.9,6.9,0.4c1.6,1.1,3.7,1.1,5.3,0c2-1.4,4.7-1.5,6.9-0.4
				c0.3,0.1,0.5,0.3,0.7,0.4c0.5,0.3,0.6,0.9,0.3,1.4c-0.3,0.5-0.9,0.6-1.4,0.3c-0.2-0.1-0.3-0.2-0.5-0.3c-1.5-0.8-3.4-0.7-4.8,0.3
				C28.6,49.6,27.3,50,26,50z"/>
		</g>
		<g>
			<path class="st0" d="M26,45.6c-1.5,0-2.9-0.4-4.1-1.1c-1.7-1-3.8-1.1-5.6-0.3c-0.3,0.2-0.7,0.1-1-0.1c-0.3-0.2-0.4-0.6-0.4-1
				c1.3-6.5-4.4-17-4.5-17.1c-0.1-0.3-0.2-0.6-0.1-0.8c0.1-0.3,0.3-0.5,0.6-0.6l14.7-5.1c0.2-0.1,0.4-0.1,0.7,0L41,24.5
				c0.3,0.1,0.5,0.3,0.6,0.6c0.1,0.3,0.1,0.6-0.1,0.8C41.5,26,35.8,36.5,37.1,43c0.1,0.4-0.1,0.7-0.4,1c-0.3,0.2-0.7,0.3-1,0.1
				c-1.8-0.8-4-0.7-5.6,0.3C28.9,45.2,27.5,45.6,26,45.6z M18.8,41.6c1.4,0,2.9,0.4,4.1,1.1c1.8,1.1,4.3,1.1,6.2,0
				c1.7-1,3.9-1.4,5.8-1c-0.3-5.8,3-13.1,4.3-15.7L26,21.4L12.8,26c1.3,2.7,4.6,10,4.3,15.7C17.6,41.6,18.2,41.6,18.8,41.6z"/>
		</g>
		<g>
			<path class="st0" d="M13.8,25.7L17,14.9c0.2-0.8,1-1.4,1.9-1.4h0.8l1.6-6c0.2-0.8,1-1.4,1.9-1.4h5.5c0.9,0,1.7,0.6,1.9,1.4l1.6,6
				l0.8-0.1c0.9,0,1.7,0.6,1.9,1.4l3.2,10.7L26,21.4L13.8,25.7z M18.9,15.5l-2.1,7l9.2-3.2l9.2,3.2l-2.1-7.1l-0.8,0
				c-0.9,0-1.7-0.6-1.9-1.4l-1.6-6l-5.5,0.1l-1.6,6c-0.2,0.8-1,1.4-1.9,1.4H18.9z"/>
		</g>
		<g>
			<path class="st0" d="M26,8.1c-0.6,0-1-0.4-1-1V3c0-0.6,0.4-1,1-1s1,0.4,1,1v4.1C27,7.6,26.6,8.1,26,8.1z"/>
		</g>
		<g>
			<path class="st0" d="M26,45.6c-0.6,0-1-0.4-1-1V20.4c0-0.6,0.4-1,1-1s1,0.4,1,1v24.2C27,45.1,26.6,45.6,26,45.6z"/>
		</g>
		<g>
			<rect x="25" y="15.4" class="st0" width="2" height="2"/>
		</g>
		<g>
			<rect x="25" y="10.4" class="st0" width="2" height="2"/>
		</g>
	</g>
</g>
</svg>
