<?xml version="1.0" encoding="iso-8859-1"?>
<!-- Generator: Adobe Illustrator 16.0.0, SVG Export Plug-In . SVG Version: 6.00 Build 0)  -->
<!DOCTYPE svg PUBLIC "-//W3C//DTD SVG 1.1//EN" "http://www.w3.org/Graphics/SVG/1.1/DTD/svg11.dtd">
<svg xmlns="http://www.w3.org/2000/svg" xmlns:xlink="http://www.w3.org/1999/xlink" version="1.1" id="Capa_1" x="0px" y="0px" width="512px" height="512px" viewBox="0 0 107.865 107.865" style="enable-background:new 0 0 107.865 107.865;" xml:space="preserve">
<g>
	<g id="Cloud_1_">
		<g>
			<path d="M92.818,47.591c0.127-1.048,0.246-2.257,0.246-3.145c0-14.596-12.121-26.468-27.024-26.468     c-9.483,0-18.233,4.905-23.098,12.72c-3.022-2.021-6.594-3.11-10.331-3.11c-10.117,0-18.353,8.062-18.353,17.972     c0,1.099,0.102,2.183,0.303,3.246C5.871,51.896,0,59.96,0,69.215c0,11.786,9.536,20.672,22.182,20.672h63.501     c12.229,0,22.182-9.746,22.182-21.726C107.863,58.859,101.661,50.546,92.818,47.591z M85.684,84.916H22.181     c-9.751,0-17.104-6.752-17.104-15.7c0-7.794,5.4-14.495,13.132-16.296c0.695-0.16,1.287-0.602,1.635-1.214     c0.346-0.611,0.412-1.334,0.186-1.996c-0.457-1.329-0.69-2.724-0.69-4.148c0-7.168,5.954-12.996,13.272-12.996     c3.519,0,6.834,1.334,9.335,3.752c0.592,0.577,1.432,0.828,2.247,0.678c0.813-0.146,1.507-0.678,1.851-1.42     c3.554-7.664,11.4-12.62,19.996-12.62c12.104,0,21.947,9.641,21.947,21.493c0,1.289-0.389,3.918-0.491,4.55     c-0.021,0.13-0.033,0.271-0.033,0.401c0,1.209,0.89,2.23,2.079,2.442c7.682,1.735,13.242,8.582,13.242,16.322     C102.785,77.404,95.113,84.916,85.684,84.916z" fill="#9fa7ab"/>
		</g>
	</g>
</g>
<g>
</g>
<g>
</g>
<g>
</g>
<g>
</g>
<g>
</g>
<g>
</g>
<g>
</g>
<g>
</g>
<g>
</g>
<g>
</g>
<g>
</g>
<g>
</g>
<g>
</g>
<g>
</g>
<g>
</g>
</svg>
