<?xml version="1.0" encoding="iso-8859-1"?>
<!-- Generator: Adobe Illustrator 16.0.0, SVG Export Plug-In . SVG Version: 6.00 Build 0)  -->
<!DOCTYPE svg PUBLIC "-//W3C//DTD SVG 1.1//EN" "http://www.w3.org/Graphics/SVG/1.1/DTD/svg11.dtd">
<svg xmlns="http://www.w3.org/2000/svg" xmlns:xlink="http://www.w3.org/1999/xlink" version="1.1" id="Capa_1" x="0px" y="0px" width="512px" height="512px" viewBox="0 0 107.859 107.859" style="enable-background:new 0 0 107.859 107.859;" xml:space="preserve">
<g>
	<g id="Cloud__x2B__Frost">
		<g>
			<path d="M92.854,36.87c0.123-1.059,0.237-2.267,0.237-3.17c0-15.043-12.146-27.282-27.073-27.282     c-9.471,0-18.206,5.021-23.085,13.031c-3.013-2.051-6.566-3.159-10.283-3.159c-10.152,0-18.411,8.326-18.411,18.559     c0,1.104,0.096,2.197,0.286,3.271C5.851,41.324,0,49.626,0,59.146c0,12.158,9.561,21.328,22.235,21.328     c1.452,0,2.629-1.185,2.629-2.648c0-1.465-1.177-2.647-2.629-2.647c-9.681,0-16.979-6.893-16.979-16.03     c0-7.966,5.359-14.812,13.038-16.648c0.718-0.17,1.332-0.643,1.691-1.294c0.358-0.652,0.426-1.425,0.19-2.132     c-0.454-1.35-0.683-2.773-0.683-4.224c0-7.313,5.901-13.262,13.154-13.262c3.486,0,6.771,1.364,9.25,3.832     c0.654,0.651,1.598,0.907,2.49,0.687c0.777-0.195,1.422-0.742,1.756-1.475c3.528-7.845,11.331-12.916,19.874-12.916     c12.027,0,21.815,9.861,21.815,21.985c0,1.249-0.351,3.772-0.488,4.659c-0.022,0.141-0.034,0.281-0.034,0.427     c0,1.305,0.938,2.403,2.188,2.613c7.603,1.786,13.106,8.773,13.106,16.663c0,9.437-7.617,17.115-16.979,17.115     c-1.452,0-2.628,1.184-2.628,2.647c0,1.465,1.176,2.647,2.628,2.647c12.263,0,22.235-10.052,22.235-22.41     C107.863,48.492,101.68,39.939,92.854,36.87z M75.613,76.061h-5.553l3.287-3.315c0.686-0.688,0.686-1.806,0-2.498     c-0.686-0.687-1.793-0.687-2.479,0l-5.766,5.813h-6.945l12.343-12.439c0.685-0.688,0.685-1.807,0-2.493     c-0.687-0.69-1.794-0.69-2.479,0l-12.34,12.437v-6.998l5.767-5.814c0.686-0.688,0.686-1.807,0-2.493     c-0.683-0.69-1.79-0.69-2.476,0l-3.291,3.314v-5.603c0-0.973-0.781-1.766-1.75-1.766c-0.969,0-1.754,0.793-1.754,1.766v5.598     l-3.287-3.311c-0.683-0.691-1.791-0.691-2.476,0c-0.685,0.688-0.685,1.807,0,2.493l5.763,5.812v6.998L39.839,61.127     c-0.685-0.691-1.793-0.691-2.478,0c-0.685,0.688-0.685,1.807,0,2.493l12.343,12.438h-6.947l-5.767-5.808     c-0.683-0.692-1.793-0.692-2.476,0c-0.685,0.687-0.685,1.806,0,2.492l3.289,3.315h-5.557c-0.968,0-1.75,0.787-1.75,1.766     c0,0.974,0.782,1.766,1.75,1.766h5.556L34.514,82.9c-0.685,0.692-0.685,1.812,0,2.498c0.341,0.348,0.79,0.518,1.239,0.518     c0.446,0,0.895-0.17,1.236-0.518l5.767-5.809H49.7L37.36,92.025c-0.685,0.691-0.685,1.811,0,2.498     c0.341,0.347,0.79,0.517,1.238,0.517c0.449,0,0.896-0.17,1.239-0.517l12.341-12.436v7.001l-5.763,5.806     c-0.685,0.692-0.685,1.812,0,2.498c0.685,0.692,1.793,0.692,2.476,0l3.287-3.312v5.596c0,0.979,0.785,1.766,1.754,1.766     c0.968,0,1.75-0.787,1.75-1.766v-5.6l3.291,3.316c0.342,0.348,0.791,0.518,1.238,0.518s0.896-0.17,1.236-0.518     c0.686-0.688,0.686-1.806,0-2.498l-5.766-5.809v-7.001l12.342,12.438c0.344,0.347,0.793,0.517,1.238,0.517     c0.449,0,0.897-0.17,1.239-0.517c0.685-0.688,0.685-1.807,0-2.498L58.161,79.59h6.942l5.766,5.809     c0.341,0.348,0.79,0.518,1.238,0.518c0.449,0,0.896-0.17,1.238-0.518c0.687-0.687,0.687-1.806,0-2.498l-3.285-3.311h5.551     c0.969,0,1.754-0.792,1.754-1.766C77.366,76.848,76.581,76.061,75.613,76.061z" fill="#9fa7ab"/>
		</g>
	</g>
</g>
<g>
</g>
<g>
</g>
<g>
</g>
<g>
</g>
<g>
</g>
<g>
</g>
<g>
</g>
<g>
</g>
<g>
</g>
<g>
</g>
<g>
</g>
<g>
</g>
<g>
</g>
<g>
</g>
<g>
</g>
</svg>
