<?xml version="1.0" encoding="iso-8859-1"?>
<!-- Generator: Adobe Illustrator 16.0.0, SVG Export Plug-In . SVG Version: 6.00 Build 0)  -->
<!DOCTYPE svg PUBLIC "-//W3C//DTD SVG 1.1//EN" "http://www.w3.org/Graphics/SVG/1.1/DTD/svg11.dtd">
<svg xmlns="http://www.w3.org/2000/svg" xmlns:xlink="http://www.w3.org/1999/xlink" version="1.1" id="Capa_1" x="0px" y="0px" width="512px" height="512px" viewBox="0 0 107.863 107.863" style="enable-background:new 0 0 107.863 107.863;" xml:space="preserve">
<g>
	<g id="Cloud__x2B__Thunder">
		<g>
			<path d="M92.823,30.172c0.127-1.064,0.245-2.293,0.245-3.195C93.068,12.104,80.941,0,66.038,0     c-9.485,0-18.233,4.996-23.097,12.957C39.919,10.9,36.35,9.791,32.616,9.791c-10.122,0-18.358,8.222-18.358,18.318     c0,1.114,0.101,2.218,0.298,3.301C5.868,34.561,0,42.776,0,52.207c0,12.013,9.54,21.07,22.188,21.07h22.645L32.995,88.035     c-0.203,0.251-0.246,0.598-0.105,0.895c0.141,0.289,0.434,0.48,0.76,0.48l10.346,0.13l-12.892,16.964     c-0.243,0.321-0.228,0.764,0.035,1.068c0.166,0.191,0.401,0.291,0.643,0.291c0.143,0,0.283-0.035,0.413-0.105L73.49,84.951     c0.338-0.186,0.509-0.577,0.41-0.953c-0.096-0.377-0.432-0.639-0.816-0.639l-12.893-0.068l6.768-9.877     c0.029-0.043,0.047-0.09,0.066-0.137h18.649c12.234,0,22.188-9.937,22.188-22.146C107.863,41.652,101.663,33.186,92.823,30.172z      M85.675,68.184H22.188c-9.741,0-17.088-6.867-17.088-15.977c0-7.936,5.396-14.758,13.12-16.588     c0.697-0.166,1.294-0.617,1.643-1.239c0.349-0.627,0.413-1.374,0.186-2.052c-0.456-1.35-0.688-2.769-0.688-4.219     c0-7.293,5.946-13.227,13.255-13.227c3.516,0,6.824,1.359,9.322,3.822c0.597,0.582,1.438,0.838,2.257,0.691     c0.823-0.15,1.515-0.691,1.861-1.449c3.551-7.81,11.394-12.855,19.981-12.855c12.091,0,21.93,9.816,21.93,21.885     c0,1.313-0.389,3.987-0.492,4.635c-0.02,0.13-0.031,0.271-0.031,0.406c0,1.238,0.893,2.287,2.089,2.503     c7.672,1.766,13.229,8.737,13.229,16.612C102.762,60.538,95.098,68.184,85.675,68.184z" fill="#9fa7ab"/>
		</g>
	</g>
</g>
<g>
</g>
<g>
</g>
<g>
</g>
<g>
</g>
<g>
</g>
<g>
</g>
<g>
</g>
<g>
</g>
<g>
</g>
<g>
</g>
<g>
</g>
<g>
</g>
<g>
</g>
<g>
</g>
<g>
</g>
</svg>
